<svg xmlns="http://www.w3.org/2000/svg" width="26.993" height="26.993" viewBox="0 0 26.993 26.993">
  <path id="Icon_ionic-logo-linkedin" data-name="Icon ionic-logo-linkedin" d="M29.334,4.5H6.806A2.2,2.2,0,0,0,4.5,6.6V29.18a2.375,2.375,0,0,0,2.306,2.313H29.327a2.255,2.255,0,0,0,2.166-2.313V6.6A2.07,2.07,0,0,0,29.334,4.5ZM12.867,27H9V14.977h3.867Zm-1.8-13.852h-.028A1.985,1.985,0,0,1,9,11.074,2,2,0,0,1,11.088,9a1.992,1.992,0,0,1,2.067,2.074A2,2,0,0,1,11.067,13.148ZM27,27H23.133V20.426c0-1.575-.562-2.651-1.962-2.651A2.116,2.116,0,0,0,19.188,19.2a2.6,2.6,0,0,0-.134.949V27H15.187V14.977h3.867V16.65A3.915,3.915,0,0,1,22.542,14.7C25.08,14.7,27,16.369,27,19.976V27Z" transform="translate(-4.5 -4.5)" fill="#a8bfc7"/>
</svg>
