<svg xmlns="http://www.w3.org/2000/svg" width="26.993" height="26.993" viewBox="0 0 26.993 26.993">
  <path id="Icon_awesome-pinterest-square" data-name="Icon awesome-pinterest-square" d="M26.993,5.142V26.351A2.893,2.893,0,0,1,24.1,29.243H9.3a15.439,15.439,0,0,0,1.651-3.573c.181-.693.922-3.519.922-3.519a3.956,3.956,0,0,0,3.392,1.7c4.465,0,7.676-4.1,7.676-9.2,0-4.886-3.989-8.544-9.122-8.544-6.387,0-9.773,4.284-9.773,8.954,0,2.169,1.157,4.868,3,5.73.283.133.428.072.494-.2.048-.2.3-1.211.41-1.675a.436.436,0,0,0-.1-.422,5.767,5.767,0,0,1-1.1-3.374A6.4,6.4,0,0,1,13.43,8.7a5.843,5.843,0,0,1,6.182,6.019c0,4-2.018,6.772-4.651,6.772a2.152,2.152,0,0,1-2.193-2.675c.416-1.759,1.223-3.657,1.223-4.929,0-3.193-4.549-2.754-4.549,1.506a5.406,5.406,0,0,0,.44,2.2c-1.892,8-2.175,8.1-1.783,11.6l.133.048H2.892A2.893,2.893,0,0,1,0,26.351V5.142A2.893,2.893,0,0,1,2.892,2.25H24.1A2.893,2.893,0,0,1,26.993,5.142Z" transform="translate(0 -2.25)" fill="#a8bfc7"/>
</svg>
