<svg xmlns="http://www.w3.org/2000/svg" width="33.235" height="26.993" viewBox="0 0 33.235 26.993">
  <path id="Icon_awesome-twitter" data-name="Icon awesome-twitter" d="M29.819,10.108c.021.3.021.591.021.886,0,9-6.854,19.38-19.38,19.38A19.249,19.249,0,0,1,0,27.316a14.091,14.091,0,0,0,1.645.084A13.642,13.642,0,0,0,10.1,24.49a6.824,6.824,0,0,1-6.369-4.724,8.59,8.59,0,0,0,1.286.105,7.2,7.2,0,0,0,1.793-.232A6.812,6.812,0,0,1,1.35,12.955v-.084a6.86,6.86,0,0,0,3.079.865A6.822,6.822,0,0,1,2.32,4.625a19.362,19.362,0,0,0,14.045,7.128,7.689,7.689,0,0,1-.169-1.561A6.818,6.818,0,0,1,27.984,5.532a13.411,13.411,0,0,0,4.323-1.645,6.793,6.793,0,0,1-2.995,3.754,13.655,13.655,0,0,0,3.922-1.054,14.642,14.642,0,0,1-3.416,3.522Z" transform="translate(0 -3.381)" fill="#a8bfc7"/>
</svg>
